<svg xmlns="http://www.w3.org/2000/svg" version="1.1" xmlns:xlink="http://www.w3.org/1999/xlink" xmlns:svgjs="http://svgjs.dev/svgjs" width="128" height="128" viewBox="0 0 128 128"><g transform="matrix(0.8046875,0,0,0.8046875,12.760752631578946,12.749252797623903)"><svg viewBox="0 0 95 95" data-background-color="#ffffff" preserveAspectRatio="xMidYMid meet" height="128" width="128" xmlns="http://www.w3.org/2000/svg" xmlns:xlink="http://www.w3.org/1999/xlink"><g id="tight-bounds" transform="matrix(1,0,0,1,-0.24049999999999727,-0.22989335703175584)"><svg viewBox="0 0 95.481 95.45978671406351" height="95.45978671406351" width="95.481"><g><svg viewBox="0 0 95.481 95.45978671406351" height="95.45978671406351" width="95.481"><g><svg viewBox="0 0 95.481 95.45978671406351" height="95.45978671406351" width="95.481"><g id="textblocktransform"><svg viewBox="0 0 95.481 95.45978671406351" height="95.45978671406351" width="95.481" id="textblock"><g><svg viewBox="0 0 95.481 95.45978671406351" height="95.45978671406351" width="95.481"><g><svg viewBox="0 0 95.481 95.45978671406351" height="95.45978671406351" width="95.481"><g><svg xmlns="http://www.w3.org/2000/svg" xmlns:xlink="http://www.w3.org/1999/xlink" version="1.1" x="0" y="0" viewBox="13.991999999999997 14 72.01600000000002 72" enable-background="new 0 0 100 100" xml:space="preserve" height="95.45978671406351" width="95.481" class="icon-icon-0" data-fill-palette-color="accent" id="icon-0"><g fill="#010c80" data-fill-palette-color="accent"><path fill="#000000" d="M49.992 14c-19.86 0-36 16.14-36 36 0 19.74 15.9 35.76 35.58 36 0.06 0 0.06 0 0.12 0h0.3 35.161c1.14 0 1.14-1.62 0-1.62h-24.54c14.699-4.5 25.38-18.18 25.38-34.38C85.993 30.14 69.853 14 49.992 14L49.992 14zM49.992 15.62c19.021 0 34.381 15.36 34.381 34.38 0 19.02-15.36 34.38-34.381 34.38-19.02 0-34.38-15.36-34.38-34.38C15.612 30.98 30.972 15.62 49.992 15.62L49.992 15.62zM49.992 19.28c-16.98 0-30.72 13.74-30.72 30.72 0 16.98 13.74 30.72 30.72 30.72 16.98 0 30.721-13.739 30.721-30.72C80.713 33.02 66.973 19.28 49.992 19.28L49.992 19.28zM49.992 20.9c16.081 0 29.101 13.02 29.101 29.1s-13.02 29.1-29.101 29.1c-16.08 0-29.1-13.02-29.1-29.1S33.913 20.9 49.992 20.9L49.992 20.9zM49.992 23.72c-4.98 0-9 4.02-9 9s4.02 9 9 9c4.98 0 9.001-4.02 9.001-9S54.973 23.72 49.992 23.72L49.992 23.72zM49.992 25.28c4.141 0 7.44 3.3 7.44 7.44 0 4.08-3.3 7.44-7.44 7.44-4.14 0-7.44-3.36-7.44-7.44C42.552 28.58 45.853 25.28 49.992 25.28L49.992 25.28zM32.712 41c-4.98 0-9 4.02-9 9 0 4.98 4.02 9 9 9s9-4.02 9-9C41.712 45.02 37.692 41 32.712 41L32.712 41zM67.272 41c-4.979 0-9 4.02-9 9 0 4.98 4.021 9 9 9 4.98 0 9-4.02 9-9C76.272 45.02 72.253 41 67.272 41L67.272 41zM32.712 42.56c4.08 0 7.44 3.3 7.44 7.44 0 4.14-3.36 7.44-7.44 7.44-4.14 0-7.44-3.301-7.44-7.44C25.272 45.86 28.572 42.56 32.712 42.56L32.712 42.56zM67.272 42.56c4.141 0 7.44 3.3 7.44 7.44 0 4.14-3.3 7.44-7.44 7.44-4.08 0-7.439-3.301-7.439-7.44C59.833 45.86 63.192 42.56 67.272 42.56L67.272 42.56zM49.992 58.28c-4.98 0-9 4.02-9 9 0 4.979 4.02 9 9 9 4.98 0 9.001-4.021 9.001-9C58.993 62.3 54.973 58.28 49.992 58.28L49.992 58.28zM49.992 59.84c4.141 0 7.44 3.36 7.44 7.44 0 4.14-3.3 7.439-7.44 7.439-4.14 0-7.44-3.3-7.44-7.439C42.552 63.2 45.853 59.84 49.992 59.84L49.992 59.84z" data-fill-palette-color="accent"></path></g></svg></g></svg></g></svg></g></svg></g></svg></g><g></g></svg></g><defs></defs></svg><rect width="95.481" height="95.45978671406351" fill="none" stroke="none" visibility="hidden"></rect></g></svg></g></svg>